<?xml version="1.0" encoding="iso-8859-1"?>
<!-- Uploaded to: SVG Repo, www.svgrepo.com, Generator: SVG Repo Mixer Tools -->
<svg version="1.1" id="Layer_1" xmlns="http://www.w3.org/2000/svg" xmlns:xlink="http://www.w3.org/1999/xlink" 
	 viewBox="0 0 473.935 473.935" xml:space="preserve">
<circle style="fill:#4ABC96;" cx="236.967" cy="236.967" r="236.967"/>
<polygon style="fill:#9B7842;" points="236.747,274.658 236.739,274.636 236.739,274.636 "/>
<g>
	<path style="fill:#A3D4AA;" d="M343.062,181.039c0,6.035-4.898,10.93-10.933,10.93h-68.318c-6.036,0-10.93-4.894-10.93-10.93
		v-39.622c0-6.039,4.894-10.93,10.93-10.93h68.318c6.035,0,10.933,4.894,10.933,10.93L343.062,181.039L343.062,181.039z"/>
	<path style="fill:#A3D4AA;" d="M374.373,308.29c0,19.644-15.921,35.562-35.562,35.562H116.557
		c-19.641,0-35.562-15.921-35.562-35.562V179.385c0-19.641,15.921-35.562,35.562-35.562h222.255
		c19.641,0,35.562,15.921,35.562,35.562V308.29z"/>
</g>
<rect x="280.29" y="135.695" transform="matrix(-0.7072 0.707 -0.707 -0.7072 618.2648 87.7092)" style="opacity:0.15;enable-background:new    ;" width="21.362" height="72.362"/>
<g>
	<path style="fill:#F6A2A3;" d="M276.38,186.595c0,6.039-4.898,10.93-10.934,10.93h-68.314c-6.036,0-10.93-4.894-10.93-10.93
		v-39.622c0-6.036,4.894-10.934,10.93-10.934h68.314c6.035,0,10.934,4.898,10.934,10.934L276.38,186.595L276.38,186.595z"/>
	<path style="fill:#F6A2A3;" d="M374.373,316.069c0,19.644-15.921,35.562-35.562,35.562H116.557
		c-19.641,0-35.562-15.921-35.562-35.562V187.16c0-19.637,15.921-35.562,35.562-35.562h222.255
		c19.641,0,35.562,15.925,35.562,35.562V316.069z"/>
</g>
<rect x="211.617" y="142.085" transform="matrix(-0.7072 0.707 -0.707 -0.7072 505.541 147.1651)" style="opacity:0.15;enable-background:new    ;" width="21.362" height="72.354"/>
<g>
	<path style="fill:#F9F29A;" d="M209.697,194.745c0,6.035-4.898,10.934-10.934,10.934H130.45c-6.039,0-10.926-4.898-10.926-10.934
		v-39.622c0-6.032,4.891-10.93,10.926-10.93h68.314c6.035,0,10.934,4.898,10.934,10.93V194.745z"/>
	<path style="fill:#F9F29A;" d="M374.373,360.525H80.991l0.004-164.47c0-19.637,15.921-35.562,35.562-35.562h222.255
		c19.641,0,35.562,15.925,35.562,35.562V360.525z"/>
</g>
<circle style="fill:#0EA24A;" cx="328.791" cy="329.539" r="58.533"/>
<g>
	<rect x="321.719" y="299.156" style="fill:#FFFFFF;" width="17.904" height="62.233"/>
	<rect x="299.568" y="321.307" style="fill:#FFFFFF;" width="62.233" height="17.904"/>
</g>
</svg>